HIERARCHY
ROOT Hips
{
  OFFSET -30.1119 54.3129 168.461
  CHANNELS 6 Xposition Yposition Zposition Zrotation Xrotation Yrotation
  JOINT RightUpLeg
  {
    OFFSET -8.9458 -8.66707 0.101652
    CHANNELS 3 Zrotation Xrotation Yrotation
    JOINT RightLeg
    {
      OFFSET 0 -44.4227 1.3727
      CHANNELS 3 Zrotation Xrotation Yrotation
      JOINT RightFoot
      {
        OFFSET 0.253549 -42.0924 -1.46059
        CHANNELS 3 Zrotation Xrotation Yrotation
        JOINT RightToes
        {
          OFFSET 0.04 -4.41509 8.4991
          CHANNELS 3 Zrotation Xrotation Yrotation
          End Site
          {
            OFFSET -0.08 -0.137448 9.77979
          }
        }
      }
    }
  }
  JOINT Spine
  {
    OFFSET 0 11.8905 0
    CHANNELS 3 Zrotation Xrotation Yrotation
    JOINT Spine1
    {
      OFFSET 0 25.6574 0.127663
      CHANNELS 3 Zrotation Xrotation Yrotation
      JOINT HEad
      {
        OFFSET 0 8.73416 0.011341
        CHANNELS 3 Zrotation Xrotation Yrotation
        End Site
        {
          OFFSET -0.29 12.7742 2.51395
        }
      }
      JOINT LeftShoulder1
      {
        OFFSET 8.99 -0.362252 -0.22
        CHANNELS 3 Zrotation Xrotation Yrotation
        JOINT LeftArm
        {
          OFFSET 10.2827 -0.00338 0.322123
          CHANNELS 3 Zrotation Xrotation Yrotation
          JOINT LeftForeArm
          {
            OFFSET 32.7669 0.099144 -1.42434
            CHANNELS 3 Zrotation Xrotation Yrotation
            JOINT LeftHand
            {
              OFFSET 27.5643 0.085362 1.02216
              CHANNELS 3 Zrotation Xrotation Yrotation
              End Site
              {
                OFFSET 16.7443 -0.6 1.50291
              }
            }
          }
        }
      }
      JOINT RightShoulder
      {
        OFFSET -8.99 -0.362252 -0.22
        CHANNELS 3 Zrotation Xrotation Yrotation
        JOINT RightArm
        {
          OFFSET -10.2827 -0.00338 0.322123
          CHANNELS 3 Zrotation Xrotation Yrotation
          JOINT RightForeArm
          {
            OFFSET -32.8971 0.099144 -1.42434
            CHANNELS 3 Zrotation Xrotation Yrotation
            JOINT RightHand
            {
              OFFSET -27.4921 0.085362 1.02216
              CHANNELS 3 Zrotation Xrotation Yrotation
              End Site
              {
                OFFSET -16.6312 -0.6 1.50291
              }
            }
          }
        }
      }
    }
  }
  JOINT LeftUpLeg
  {
    OFFSET 8.9458 -8.66707 0.101652
    CHANNELS 3 Zrotation Xrotation Yrotation
    JOINT LeftLeg
    {
      OFFSET 0 -44.4227 1.3727
      CHANNELS 3 Zrotation Xrotation Yrotation
      JOINT LeftFoot
      {
        OFFSET -0.253549 -42.0924 -1.46059
        CHANNELS 3 Zrotation Xrotation Yrotation
        JOINT LeftToes
        {
          OFFSET -0.04 -4.41509 8.4991
          CHANNELS 3 Zrotation Xrotation Yrotation
          End Site
          {
            OFFSET 0.08 -0.047448 9.77979
          }
        }
      }
    }
  }
}
MOTION
Frames:	22
Frame Time:	0.0166667
-43.46873	48.5042	46.7	47.9842	43.049	125.848	-47.5183	-67.5491	-42.2846	107.993	63.7287	-113.159	-5.73428	-0.420068	6.63438	4.62E-02	5.34E-04	0.662642	1.15154	2.90906	1.41343	2.23512	5.84789	2.77305	17.7571	45.3537	35.5328	6.36E-15	0.00E+00	0.00E+00	-25.0643	12.6129	-63.5797	-10.7417	-15.778	-164.434	-6.41296	11.0621	7.84516	6.36E-15	0.00E+00	0.00E+00	26.3923	16.6986	51.5485	-3.11028	-53.2206	153.823	-32.5023	12.8095	4.00698	-1.28E+01	-3.37E+01	-13.3317	22.2459	76.7364	-14.0755	-2.93815	13.5846	-12.0013	1.59E-14	3.26E-14	1.27E-14
-43.47433	48.4924	46.723	48.0186	42.9853	125.773	-47.3071	-67.6146	-42.1421	107.945	63.7284	-113.088	-5.76532	-0.389387	6.64708	4.62E-02	5.34E-04	6.63E-01	1.1525	2.91091	1.38572	2.23843	5.85108	2.71744	17.5054	45.3515	35.3125	3.18E-15	6.36E-15	3.18E-15	-25.4395	12.8595	-63.4506	-10.7266	-15.779	-164.459	-6.4533	11.0314	7.78389	3.18E-15	6.36E-15	3.18E-15	26.4098	16.7532	51.5373	-3.09611	-53.241	153.839	-32.4473	12.8287	4.00988	-1.27E+01	-3.37E+01	-1.33E+01	22.2961	76.7612	-14.1139	-3.07162	13.6255	-11.9839	1.59E-14	2.94E-14	1.27E-14
-43.45473	48.481	46.747	48.1017	42.9828	125.726	-47.1002	-67.579	-41.9935	107.901	63.7339	-113.012	-5.78308	-0.367279	6.663	4.62E-02	5.34E-04	6.63E-01	1.15331	2.92635	1.36297	2.24091	5.88154	2.67155	17.3392	45.3769	34.979	1.06E-30	-9.54E-15	6.36E-15	-25.796	13.1496	-63.3804	-10.7058	-15.7323	-164.454	-6.39812	10.9657	7.71757	1.06E-30	-9.54E-15	6.36E-15	26.4805	16.7294	51.4061	-3.04921	-53.1869	153.856	-32.3893	12.8521	4.01111	-1.26E+01	-3.37E+01	-13.3982	22.3699	76.7973	-14.1732	-3.18746	13.618	-12.0131	1.35E-14	3.34E-14	3.18E-15
-43.42243	48.4867	46.754	48.0617	42.9674	125.722	-47.0221	-67.6228	-41.9338	107.847	63.7294	-112.951	-5.78269	-0.376525	6.68034	4.62E-02	5.34E-04	0.662642	1.14002	2.93067	1.34489	2.21513	5.88955	2.63594	17.1417	45.4421	34.7	6.36E-15	-6.36E-15	0.00E+00	-26.133	13.3849	-63.2782	-10.6756	-15.6877	-164.435	-6.30152	10.883	7.63255	6.36E-15	-6.36E-15	0.00E+00	26.576	16.6664	51.3043	-2.98994	-53.0812	153.86	-32.3225	12.882	4.02567	-1.26E+01	-3.37E+01	-13.3639	22.452	76.7991	-14.2441	-3.21416	13.6065	-11.907	1.43E-14	3.18E-14	-3.18E-15
-43.39453	48.4853	46.756	47.9937	42.974	125.706	-46.9442	-67.6695	-41.8558	107.784	63.7404	-112.933	-5.7572	-0.421744	6.73325	4.62E-02	5.34E-04	6.63E-01	1.11856	2.91671	1.32447	2.17347	5.86078	2.59638	16.9338	45.6471	34.4802	-6.36E-15	6.36E-15	0.00E+00	-26.4136	13.6512	-63.1002	-10.6515	-15.6898	-164.44	-6.28815	10.8277	7.54811	-6.36E-15	6.36E-15	0.00E+00	26.6343	16.6793	51.2179	-2.93321	-53.0272	153.856	-32.2545	12.8738	4.04016	-1.26E+01	-3.38E+01	-1.33E+01	22.3593	76.7994	-14.1591	-3.2213	13.6044	-11.9344	1.35E-14	3.10E-14	3.18E-15
-43.38023	48.4701	46.767	48.0018	42.9709	125.645	-46.7806	-67.6552	-41.7337	107.709	63.7462	-112.908	-5.74487	-0.452444	6.7801	4.62E-02	5.34E-04	6.63E-01	1.11486	2.9125	1.30536	2.16713	5.85192	2.55834	16.7333	45.831	34.3104	-3.18E-15	3.18E-15	0.00E+00	-26.6032	13.9095	-62.9337	-10.6149	-15.7594	-164.468	-6.29756	10.7708	7.50652	-3.18E-15	3.18E-15	0.00E+00	26.646	16.7295	51.1205	-2.9531	-53.0737	153.818	-32.1721	12.8796	4.0337	-1.26E+01	-3.38E+01	-13.3114	22.196	76.8094	-14.03	-3.24867	13.644	-12.0244	1.51E-14	3.26E-14	6.36E-15
-43.37013	48.455	46.781	48.0204	42.9786	125.607	-46.6824	-67.593	-41.6545	107.629	63.7285	-112.849	-5.7382	-0.468786	6.80241	4.62E-02	5.34E-04	6.63E-01	1.11353	2.92268	1.29628	2.16473	5.87209	2.54004	16.5926	45.9274	34.14	3.18E-15	6.36E-15	6.36E-15	-26.7342	14.0907	-62.8449	-10.5868	-15.7896	-164.488	-6.27045	10.6953	7.50288	3.18E-15	6.36E-15	6.36E-15	26.6382	16.6997	50.9876	-2.97734	-53.1334	153.771	-32.0995	12.91	4.0038	-1.26E+01	-3.38E+01	-1.34E+01	21.9755	76.8358	-13.8276	-3.2397	13.6774	-11.9327	1.59E-14	3.18E-14	9.54E-15
-43.35153	48.449	46.796	48.0967	43.0337	125.571	-46.5664	-67.4537	-41.535	107.546	63.7076	-112.775	-5.76492	-0.521099	6.76155	4.62E-02	5.34E-04	6.63E-01	1.11058	2.94256	1.29121	2.16461	5.91174	2.52957	16.5435	46.0413	33.895	-1.06E-30	-9.54E-15	-6.36E-15	-26.8647	14.2466	-62.7902	-10.5727	-15.7548	-164.48	-6.21072	10.5841	7.49898	-1.06E-30	-9.54E-15	-6.36E-15	26.6656	16.5989	50.7776	-2.87134	-53.0641	153.784	-32.0084	12.9463	3.97676	-1.26E+01	-3.37E+01	-1.34E+01	21.7754	76.8544	-13.6365	-3.21062	13.6443	-12.0515	1.43E-14	3.18E-14	9.54E-15
-43.33243	48.4663	46.786	48.0309	43.0245	125.578	-46.5972	-67.4455	-41.557	107.453	63.6906	-112.706	-5.75542	-0.572171	6.77765	4.62E-02	5.34E-04	6.63E-01	1.1079	2.94166	1.28991	2.15524	5.90983	2.52893	16.4702	46.1491	33.7393	-3.18E-15	3.18E-15	6.36E-15	-26.9917	14.2916	-62.7052	-10.5632	-15.6959	-164.468	-6.17246	10.4744	7.478	-3.18E-15	3.18E-15	6.36E-15	26.6889	16.434	50.638	-2.63149	-52.8838	153.861	-31.9004	12.9836	3.97514	-1.26E+01	-33.7079	-13.3774	21.5896	76.8585	-13.4319	-3.0891	13.6129	-11.9833	1.51E-14	3.26E-14	3.18E-15
-43.31943	48.4776	46.769	47.9324	42.9829	125.585	-46.6257	-67.4855	-41.5996	107.337	63.6957	-112.636	-5.74272	-0.637009	6.81326	4.62E-02	5.34E-04	6.63E-01	1.10895	2.92908	1.28984	2.15583	5.88462	2.52559	16.3687	46.2721	33.6505	6.36E-15	6.36E-15	6.36E-15	-27.0702	14.3122	-62.6045	-10.541	-15.6909	-164.467	-6.21464	10.399	7.45562	6.36E-15	6.36E-15	6.36E-15	26.675	16.3213	50.5546	-2.41449	-52.758	153.925	-31.7839	13.0072	3.97032	-1.25E+01	-33.7754	-1.34E+01	21.3017	76.8768	-13.1082	-2.96001	13.6035	-11.9985	1.43E-14	3.34E-14	1.27E-14
-43.31943	48.4804	46.754	47.9034	42.9633	125.573	-46.5765	-67.4594	-41.5761	107.2	63.7011	-112.513	-5.74246	-0.678348	6.83458	4.62E-02	5.34E-04	0.662642	1.11785	2.93086	1.29077	2.17387	5.89351	2.52157	16.2918	46.3348	33.572	3.18E-15	-6.36E-15	-3.18E-15	-27.0695	14.3328	-62.5559	-10.5125	-15.7409	-164.479	-6.31159	10.3397	7.46822	3.18E-15	-6.36E-15	-3.18E-15	26.6382	16.2494	50.4568	-2.2793	-52.7125	153.969	-31.6737	13.0591	3.94597	-1.25E+01	-33.8136	-1.34E+01	20.8785	76.9287	-12.6426	-2.83094	13.6201	-11.9967	1.51E-14	3.02E-14	3.18E-15
-43.31473	48.485	46.744	47.8799	42.936	125.603	-46.5695	-67.4098	-41.6087	107.055	63.7047	-112.356	-5.75094	-0.6859	6.81611	4.62E-02	5.34E-04	6.63E-01	1.13099	2.93664	1.29238	2.20051	5.90022	2.5196	16.2911	46.3616	33.4475	-3.18E-15	-9.54E-15	-6.36E-15	-27.0338	14.3322	-62.567	-10.4902	-15.7759	-164.483	-6.35978	10.2478	7.48746	-3.18E-15	-9.54E-15	-6.36E-15	26.61	16.1532	50.3085	-2.11535	-52.6447	154.053	-31.5689	13.1174	3.9154	-1.25E+01	-33.8536	-13.6	20.3753	77.0108	-12.0813	-2.73233	13.6495	-12.0459	1.43E-14	3.18E-14	1.59E-14
-43.29293	48.4996	46.733	47.8303	42.9185	125.67	-46.667	-67.3702	-41.6988	106.947	63.6799	-112.243	-5.75449	-0.708483	6.79453	4.62E-02	5.34E-04	6.63E-01	1.13854	2.94006	1.29438	2.21551	5.90724	2.52271	16.3252	46.4028	33.3256	0.00E+00	6.36E-15	0.00E+00	-26.9987	14.2855	-62.5862	-10.4582	-15.8112	-164.464	-6.35424	10.1068	7.48506	0.00E+00	6.36E-15	0.00E+00	26.6344	16.0357	50.1551	-1.89462	-52.4802	154.179	-31.4576	13.179	3.89764	-1.26E+01	-3.39E+01	-1.38E+01	19.9952	77.0809	-11.6414	-2.64651	13.609	-12.2196	1.51E-14	3.18E-14	9.54E-15
-43.26613	48.5246	46.707	47.643	42.8376	125.766	-46.9493	-67.4725	-41.9427	106.891	63.629	-112.203	-5.77841	-0.770709	6.76952	4.62E-02	5.34E-04	6.63E-01	1.13756	2.92607	1.29648	2.21327	5.87934	2.53303	16.3114	46.4483	33.3002	0.00E+00	0.00E+00	-3.18E-15	-26.9703	14.1576	-62.5527	-10.4346	-15.8418	-164.448	-6.36313	9.95913	7.46799	0.00E+00	0.00E+00	-3.18E-15	26.6896	15.9341	50.0988	-1.64627	-52.2205	154.348	-31.3371	13.2387	3.92986	-1.26E+01	-3.40E+01	-1.39E+01	19.7297	77.1301	-11.328	-2.50041	13.5699	-12.0129	1.59E-14	3.18E-14	0.00E+00
-43.24793	48.5381	46.694	47.4729	42.7627	125.817	-47.1195	-67.5905	-42.0896	106.823	63.5971	-112.177	-5.75383	-0.806837	6.83504	4.62E-02	5.34E-04	0.662642	1.14194	2.90576	1.2984	2.21394	5.83882	2.54331	16.2815	46.5485	33.2945	0.00E+00	9.54E-15	0.00E+00	-26.9545	14.0658	-62.4568	-10.4106	-15.8635	-164.445	-6.43455	9.87209	7.43294	0.00E+00	9.54E-15	0.00E+00	26.718	15.9358	50.0718	-1.31608	-51.84	154.612	-31.224	13.3129	4.01836	-1.26E+01	-3.42E+01	-13.9236	19.4779	77.1485	-11.0294	-2.40314	13.5325	-12.1529	1.59E-14	3.18E-14	6.36E-15
-43.25103	48.5424	46.689	47.3263	42.6879	125.919	-47.3277	-67.6504	-42.3211	106.724	63.5982	-112.096	-5.74266	-0.800843	6.86837	4.62E-02	5.34E-04	6.63E-01	1.14804	2.89432	1.30087	2.22771	5.81615	2.54811	16.3075	46.5637	33.2217	3.18E-15	-3.18E-15	-3.18E-15	-26.8938	13.997	-62.4233	-10.388	-15.9109	-164.454	-6.53126	9.81744	7.4118	3.18E-15	-3.18E-15	-3.18E-15	26.7017	15.9455	49.9997	-0.689155	-51.1259	155.159	-31.0934	13.5151	4.16013	-1.27E+01	-3.43E+01	-1.41E+01	19.1177	77.1828	-10.6396	-2.33792	13.5459	-12.2714	1.59E-14	3.18E-14	3.18E-15
-43.25553	48.5321	46.69	47.191	42.6059	126.022	-47.567	-67.7188	-42.601	106.642	63.6001	-112.006	-5.76695	-0.781598	6.83703	4.62E-02	5.34E-04	6.63E-01	1.15183	2.88611	1.30888	2.24156	5.80003	2.56392	16.3625	46.5442	33.1382	3.18E-15	-3.18E-15	0.00E+00	-26.809	13.9152	-62.3976	-10.3849	-15.9335	-164.464	-6.56769	9.73695	7.39035	3.18E-15	-3.18E-15	0.00E+00	26.6789	15.9267	49.8935	0.214268	-50.1228	155.934	-30.8323	13.6592	4.24393	-12.7871	-3.45E+01	-14.4018	18.5105	77.2909	-10.0018	-2.29238	13.5648	-12.2689	1.35E-14	3.26E-14	9.54E-15
-43.24703	48.5168	46.696	47.0852	42.5556	126.149	-47.8838	-67.7373	-42.923	106.58	63.58	-111.95	-5.80247	-0.781278	6.80097	4.62E-02	5.34E-04	0.662642	1.15207	2.88036	1.32005	2.25176	5.78885	2.58613	16.4793	46.5729	32.9611	6.36E-15	3.18E-15	-6.36E-15	-26.7715	13.8774	-62.3701	-10.3785	-15.8965	-164.453	-6.52268	9.61765	7.34723	6.36E-15	3.18E-15	-6.36E-15	26.6855	15.8604	49.7005	1.05512	-49.3254	156.621	-30.4595	13.7485	4.26161	-1.29E+01	-3.46E+01	-1.47E+01	18.0989	77.3893	-9.58887	-2.26505	13.5403	-12.2774	1.67E-14	3.18E-14	9.54E-15
-43.23153	48.5116	46.692	46.8407	42.4509	126.337	-48.4108	-67.8591	-43.4243	106.515	63.5201	-111.906	-5.81385	-0.794114	6.81393	4.62E-02	5.34E-04	6.63E-01	1.15102	2.84997	1.33448	2.2484	5.72833	2.61565	16.5446	46.6555	32.8312	-1.77E-31	3.18E-15	3.18E-15	-26.7807	13.8348	-62.2859	-10.3865	-15.7958	-164.441	-6.46447	9.53175	7.23865	-1.77E-31	3.18E-15	3.18E-15	26.7583	15.7466	49.4959	1.59515	-48.9205	157.077	-30.071	13.8347	4.23338	-1.30E+01	-3.49E+01	-14.8316	17.9053	77.4504	-9.40841	-2.23528	13.4877	-12.3253	1.27E-14	3.26E-14	9.54E-15
-43.22483	48.4986	46.684	46.5929	42.3493	126.482	-48.8784	-67.9957	-43.8984	106.457	63.4773	-111.88	-5.84361	-0.862243	6.8418	4.62E-02	5.34E-04	6.63E-01	1.14879	2.8214	1.35125	2.23439	5.67136	2.65007	16.5365	46.7951	32.7584	-6.36E-15	0.00E+00	-3.18E-15	-26.777	13.8388	-62.1542	-10.424	-15.6191	-164.436	-6.34995	9.49947	7.13518	-6.36E-15	0.00E+00	-3.18E-15	26.9138	15.6555	49.2883	1.8218	-48.7786	157.291	-29.7531	13.8052	4.2518	-1.30E+01	-3.51E+01	-14.889	17.8329	77.4671	-9.34441	-2.17905	13.4514	-12.2564	1.43E-14	3.10E-14	9.54E-15
-43.22883	48.4811	46.693	46.4231	42.2818	126.592	-49.2034	-68.058	-44.2635	106.369	63.4533	-111.813	-5.86093	-0.903231	6.91005	4.62E-02	5.34E-04	6.63E-01	1.14615	2.80772	1.3618	2.22912	5.64416	2.67157	16.4919	46.8928	32.6835	0.00E+00	-3.18E-15	0.00E+00	-26.7171	13.9034	-62.0235	-10.4917	-15.4049	-164.447	-6.07434	9.53628	7.04845	0.00E+00	-3.18E-15	0.00E+00	27.0715	15.61	49.0781	1.90745	-48.6972	157.38	-29.5636	13.6977	4.34019	-1.30E+01	-3.53E+01	-14.9156	17.8015	77.4558	-9.35058	-2.12072	13.4769	-12.2291	1.51E-14	3.02E-14	9.54E-15
-43.22743	48.4679	46.707	46.2142	42.1905	126.743	-49.6335	-68.1259	-44.7507	106.285	63.4244	-111.722	-5.88203	-0.925886	6.97317	4.62E-02	5.34E-04	6.63E-01	1.14227	2.7933	1.37416	2.22103	5.61546	2.69676	16.4321	46.8942	32.6	-3.18E-15	-9.54E-15	-6.36E-15	-26.607	13.9484	-61.9416	-10.5821	-15.1484	-164.452	-5.56993	9.61576	6.96981	-3.18E-15	-9.54E-15	-6.36E-15	27.1774	15.5375	48.9016	1.95386	-48.6069	157.431	-29.5132	13.5746	4.40687	-1.31E+01	-3.55E+01	-1.50E+01	17.7447	77.4589	-9.33582	-2.05949	13.5114	-12.2426	1.59E-14	3.10E-14	9.54E-15
